<?xml version="1.0" encoding="UTF-8"?>
<svg id="Layer_1" data-name="Layer 1" xmlns="http://www.w3.org/2000/svg" viewBox="0 0 72.85 39.23">
  <path d="M55.54,39.23l-14.13-3.92L38.26,0h34.59l-3.15,35.3-14.16,3.93h0Z" style="fill: #264de4;"/>
  <path d="M67,33.05l2.69-30.17h-14.14v33.34l11.45-3.17h0Z" style="fill: #2965f1;"/>
  <path d="M45.48,15.98l.39,4.33h9.69v-4.33h-10.08ZM44.7,7.22l.39,4.33h10.46v-4.33h-10.86ZM55.56,27.23h-.02s-4.82-1.3-4.82-1.3l-.31-3.45h-4.35l.61,6.8,8.87,2.46h.02v-4.51Z" style="fill: #ebebeb;"/>
  <path d="M65.61,15.98l.78-8.76h-10.85v4.33h6.1l-.39,4.43h-5.71v4.33h5.33l-.5,5.62-4.83,1.3v4.5l8.88-2.46.07-.73,1.02-11.4.11-1.16h0Z" style="fill: #fff;"/>
  <path d="M34.59,0l-3.15,35.3-14.16,3.93-14.13-3.92L0,0h34.59,0Z" style="fill: #e44d26;"/>
  <path d="M17.29,36.23l11.45-3.17,2.69-30.17h-14.14v33.34Z" style="fill: #f16529;"/>
  <path d="M11.17,11.55h6.13v-4.33H6.44l.1,1.16,1.06,11.93h9.69v-4.33h-5.73l-.4-4.43ZM12.14,22.48h-4.35l.61,6.8,8.87,2.46h.02v-4.51h-.02s-4.82-1.3-4.82-1.3l-.31-3.45h0Z" style="fill: #ebebeb;"/>
  <path d="M17.28,20.31h5.33l-.5,5.62-4.83,1.3v4.5l8.88-2.46.07-.73,1.02-11.4.11-1.16h-10.07v4.33h0ZM17.28,11.54h0s10.46.01,10.46.01l.09-.97.2-2.2.1-1.16h-10.85v4.32h0Z" style="fill: #fff;"/>
</svg>